<?xml version="1.0" encoding="UTF-8"?>
<svg width="100px" height="50px" viewBox="0 0 100 50" version="1.1" xmlns="http://www.w3.org/2000/svg" xmlns:xlink="http://www.w3.org/1999/xlink">
    <!-- Generator: Sketch 44.1 (41455) - http://www.bohemiancoding.com/sketch -->
    <title>main-pay-pal-full</title>
    <desc>Created with Sketch.</desc>
    <defs>
        <polygon id="path-1" points="11.9719822 14.842029 0.0481668813 14.842029 0.0481668813 0.565703935 11.9719822 0.565703935 11.9719822 14.842029"></polygon>
        <polygon id="path-3" points="2.48845249e-16 17.1788322 2.48845249e-16 0.624107319 14.1903411 0.624107319 14.1903411 17.1788322 0 17.1788322"></polygon>
    </defs>
    <g id="Payment-Logos" stroke="none" stroke-width="1" fill="none" fill-rule="evenodd">
        <g id="main-pay-pal-full">
            <g id="Page-1" transform="translate(11.000000, 15.000000)">
                <g id="Group-3" transform="translate(3.701923, 4.570529)">
                    <mask id="mask-2" fill="white">
                        <use xlink:href="#path-1"></use>
                    </mask>
                    <g id="Clip-2"></g>
                    <path d="M2.99633654,0.565703935 L8.24270192,0.565703935 C11.059125,0.565703935 12.1193558,1.99721763 11.9557308,4.10330154 C11.6854904,7.57559422 9.59464423,9.49541067 6.82042308,9.49541067 L5.42035577,9.49541067 C5.04053846,9.49541067 4.78436538,9.74772517 4.68071154,10.4326848 L4.08025962,14.413317 C4.04175962,14.6715683 3.90552885,14.8236991 3.70266346,14.8422516 L0.412394231,14.8422516 C0.102913462,14.8422516 -0.00740384615,14.6040371 0.0740384615,14.0890186 L2.08270192,1.32116321 C2.16340385,0.80911321 2.44178846,0.565703935 2.99633654,0.565703935" id="Fill-1" fill="#009DE2" mask="url(#mask-2)"></path>
                </g>
                <path d="M29.4719721,4.9003185 C31.2422317,4.9003185 32.8755202,5.86356618 32.6511837,8.26649067 C32.3868663,11.114676 30.8579721,12.7012889 28.4524625,12.7079678 L26.3549529,12.7079678 C26.0521356,12.7079678 25.9070202,12.9543455 25.827799,13.462685 L25.4220683,16.0548454 C25.3613567,16.4466749 25.1614529,16.6396213 24.865299,16.6396213 L22.911424,16.6396213 C22.5997221,16.6396213 22.4908856,16.4392539 22.5612221,15.9925089 L24.176001,5.60160437 C24.2552221,5.09029647 24.4499433,4.9003185 24.7949625,4.9003185 L29.4719721,4.9003185 Z M26.289799,10.4623689 L27.8808856,10.463111 C28.8759625,10.4252638 29.537126,9.73362524 29.6037606,8.4854106 C29.6452221,7.7143672 29.1269529,7.16298582 28.301424,7.16669633 L26.8028856,7.17337524 L26.289799,10.4623689 Z M37.9627029,15.8426044 C38.1411356,15.6800842 38.3232702,15.5947425 38.2966163,15.7965941 L38.2336837,16.2774758 C38.2003663,16.5290482 38.3003183,16.6633686 38.5335394,16.6633686 L40.269001,16.6633686 C40.5614529,16.6633686 40.7036067,16.5438902 40.775424,16.0904663 L41.8452798,9.35070089 C41.8993279,9.01230263 41.8178856,8.84607191 41.5617125,8.84607191 L39.653001,8.84607191 C39.4804913,8.84607191 39.3975683,8.9432872 39.3524048,9.20673321 L39.2820683,9.62156792 C39.245049,9.83826154 39.1458375,9.87610872 39.0540298,9.65793089 C38.7304817,8.88837169 37.9042125,8.54255241 36.746251,8.56629966 C34.0690202,8.62195727 32.2639625,10.6627363 32.0707221,13.2779018 C31.9211644,15.3016124 33.3656548,16.8897095 35.2691837,16.8897095 C36.650001,16.8897095 37.2674817,16.476359 37.9627029,15.8426044 L37.9627029,15.8426044 Z M36.5108087,14.8081149 C35.3580298,14.8081149 34.5547125,13.8841986 34.7220394,12.753236 C34.8901067,11.6222734 35.966626,10.6990992 37.1194048,10.6990992 C38.2714433,10.6990992 39.0747606,11.6222734 38.9074337,12.753236 C38.7401067,13.8841986 37.6628471,14.8081149 36.5108087,14.8081149 L36.5108087,14.8081149 Z M45.2443856,8.82455096 L43.4911548,8.82455096 C43.127626,8.82455096 42.9802894,9.09096538 43.0957894,9.43084785 L45.2806644,15.8552201 L43.127626,18.9111939 C42.9477125,19.1664768 43.0861644,19.3994966 43.3401163,19.3994966 L45.3191644,19.3994966 C45.6138375,19.3994966 45.7582125,19.3238023 45.9070298,19.1093349 L52.627501,9.43084785 C52.8348087,9.13252307 52.7370779,8.82084046 52.3972413,8.82009836 L50.5270298,8.81861415 C50.2057029,8.81787205 50.0776163,8.9455135 49.8932606,9.21341212 L47.089424,13.2964543 L45.8426163,9.20673321 C45.764876,8.95441872 45.582001,8.82455096 45.2443856,8.82455096 L45.2443856,8.82455096 Z" id="Fill-4" fill="#113984"></path>
                <path d="M59.6227288,4.9003185 C61.3929885,4.9003185 63.0262769,5.86356618 62.8019404,8.26649067 C62.5376231,11.114676 61.0079885,12.7012889 58.6032192,12.7079678 L56.5049692,12.7079678 C56.2028923,12.7079678 56.0577769,12.9543455 55.9778154,13.462685 L55.572825,16.0548454 C55.5113731,16.4466749 55.3122096,16.6388792 55.0153154,16.6388792 L53.0621808,16.6388792 C52.7504788,16.6388792 52.6416423,16.4392539 52.7112385,15.9925089 L54.3267577,5.60086227 C54.4052385,5.09029647 54.6007,4.9003185 54.9457192,4.9003185 L59.6227288,4.9003185 Z M56.4398154,10.4623689 L58.0316423,10.463111 C59.0259788,10.4252638 59.6878827,9.73362524 59.7545173,8.4854106 C59.7952385,7.7143672 59.2769692,7.16298582 58.4514404,7.16669633 L56.9536423,7.17337524 L56.4398154,10.4623689 Z M68.1134596,15.8426044 C68.2918923,15.6800842 68.4740269,15.5947425 68.4473731,15.7965941 L68.3844404,16.2774758 C68.3511231,16.5290482 68.451075,16.6633686 68.6835558,16.6633686 L70.4197577,16.6633686 C70.7122096,16.6633686 70.8543635,16.5438902 70.9269212,16.0904663 L71.9960365,9.35070089 C72.0493442,9.01230263 71.9679019,8.84607191 71.7117288,8.84607191 L69.8037577,8.84607191 C69.6319885,8.84607191 69.5475846,8.9432872 69.5031615,9.20673321 L69.4320846,9.62156792 C69.3950654,9.83826154 69.2965942,9.87610872 69.2047865,9.65793089 C68.8812385,8.88837169 68.0549692,8.54255241 66.8962673,8.56629966 C64.2190365,8.62195727 62.4147192,10.6627363 62.2214788,13.2779018 C62.0719212,15.3016124 63.5164115,16.8897095 65.4192,16.8897095 C66.8000173,16.8889674 67.4174981,16.476359 68.1134596,15.8426044 L68.1134596,15.8426044 Z M66.660825,14.8081149 C65.5080462,14.8081149 64.7047288,13.8841986 64.8727962,12.753236 C65.0401231,11.6222734 66.1166423,10.6990992 67.2694212,10.6990992 C68.4222,10.6990992 69.2255173,11.6222734 69.05745,12.753236 C68.8908635,13.8841986 67.8136038,14.8081149 66.660825,14.8081149 L66.660825,14.8081149 Z M74.6673442,16.6745001 L72.6638635,16.6745001 C72.5046808,16.6745001 72.3943635,16.5498271 72.4180558,16.3969542 L74.1801712,5.20235379 C74.2046038,5.04873879 74.3541615,4.92406575 74.5133442,4.92406575 L76.516825,4.92406575 C76.6760077,4.92406575 76.7870654,5.04873879 76.7626327,5.20235379 L75.0012577,16.3969542 C74.9760846,16.5498271 74.8265269,16.6745001 74.6673442,16.6745001 L74.6673442,16.6745001 Z" id="Fill-6" fill="#009DE2"></path>
                <g id="Group-10" transform="translate(0.000000, 0.117920)">
                    <mask id="mask-4" fill="white">
                        <use xlink:href="#path-3"></use>
                    </mask>
                    <g id="Clip-9"></g>
                    <path d="M3.41820769,0.624033109 L8.66975577,0.624033109 C10.1490442,0.624033109 11.9030154,0.672269703 13.076525,1.71121173 C13.8605923,2.40507659 14.2722462,3.51154985 14.1767365,4.69817007 C13.8546692,8.72407043 11.4558231,10.9778325 8.23959231,10.9778325 L5.64972692,10.9778325 C5.20919808,10.9778325 4.91674615,11.2717047 4.79236154,12.0657533 L4.06974615,16.6816243 C4.02310192,16.9806912 3.89353462,17.1573113 3.65735192,17.1788322 L0.422611538,17.1788322 C0.063525,17.1788322 -0.0645615385,16.9035126 0.0294673077,16.3061209 L2.35945769,1.50045492 C2.45274615,0.906773761 2.77555385,0.624033109 3.41820769,0.624033109" id="Fill-8" fill="#113984" mask="url(#mask-4)"></path>
                </g>
                <path d="M4.86751058,11.7183756 L5.78484712,5.89139499 C5.86554904,5.37934499 6.14467404,5.13593571 6.69848173,5.13593571 L11.9441067,5.13593571 C12.8125779,5.13593571 13.5144625,5.27248238 14.0645683,5.52331267 C13.536674,9.10543636 11.2288952,11.0957524 8.20664519,11.0957524 L5.61603942,11.0957524 C5.2754625,11.0957524 5.02077019,11.2708884 4.86751058,11.7183756" id="Fill-11" fill="#172C70"></path>
            </g>
        </g>
    </g>
</svg>