<?xml version="1.0" encoding="UTF-8" standalone="no"?>
<svg width="38px" height="39px" viewBox="0 0 38 39" version="1.1" xmlns="http://www.w3.org/2000/svg" xmlns:xlink="http://www.w3.org/1999/xlink">
    <!-- Generator: Sketch 3.6.1 (26313) - http://www.bohemiancoding.com/sketch -->
    <title>Slice 1</title>
    <desc>Created with Sketch.</desc>
    <defs></defs>
    <g id="Page-1" stroke="none" stroke-width="1" fill="none" fill-rule="evenodd">
        <path d="M4.757,28.033 L1.842,28.033 C1.642,28.033 1.472,28.179 1.441,28.375 L0.262,35.852 C0.239,35.999 0.353,36.132 0.502,36.132 L1.894,36.132 C2.094,36.132 2.264,35.987 2.294,35.789 L2.612,33.772 C2.642,33.576 2.813,33.43 3.012,33.43 L3.935,33.43 C5.855,33.43 6.963,32.501 7.252,30.659 C7.383,29.853 7.258,29.22 6.881,28.776 C6.467,28.292 5.732,28.033 4.757,28.033 L4.757,28.033 Z M5.093,30.765 C4.934,31.811 4.134,31.811 3.362,31.811 L2.922,31.811 L3.231,29.858 C3.251,29.739 3.352,29.652 3.471,29.652 L3.673,29.652 C4.198,29.652 4.695,29.652 4.952,29.952 C5.104,30.131 5.151,30.396 5.093,30.765 L5.093,30.765 Z" id="Shape" fill="#253B80"></path>
        <path d="M13.471,30.73 L12.075,30.73 C11.957,30.73 11.854,30.817 11.836,30.935 L11.774,31.326 L11.677,31.184 C11.374,30.746 10.7,30.598 10.029,30.598 C8.485,30.598 7.168,31.767 6.911,33.406 C6.778,34.224 6.968,35.006 7.432,35.551 C7.858,36.052 8.466,36.262 9.19,36.262 C10.433,36.262 11.123,35.462 11.123,35.462 L11.061,35.85 C11.038,35.999 11.152,36.13 11.301,36.13 L12.558,36.13 C12.758,36.13 12.927,35.986 12.958,35.789 L13.713,31.011 C13.733,30.863 13.619,30.73 13.471,30.73 L13.471,30.73 Z M11.524,33.447 C11.389,34.245 10.756,34.78 9.95,34.78 C9.544,34.78 9.221,34.65 9.012,34.404 C8.805,34.159 8.727,33.811 8.792,33.424 C8.918,32.632 9.562,32.08 10.356,32.08 C10.752,32.08 11.075,32.211 11.288,32.46 C11.501,32.711 11.586,33.062 11.524,33.447 L11.524,33.447 Z" id="Shape" fill="#253B80"></path>
        <path d="M20.905,30.73 L19.503,30.73 C19.369,30.73 19.243,30.796 19.167,30.908 L17.232,33.758 L16.413,31.02 C16.36,30.849 16.203,30.731 16.023,30.731 L14.645,30.731 C14.477,30.731 14.361,30.894 14.414,31.052 L15.96,35.587 L14.507,37.636 C14.393,37.799 14.508,38.021 14.705,38.021 L16.106,38.021 C16.239,38.021 16.364,37.956 16.439,37.847 L21.105,31.113 C21.217,30.95 21.102,30.73 20.905,30.73 L20.905,30.73 Z" id="Shape" fill="#253B80"></path>
        <path d="M25.549,28.033 L22.634,28.033 C22.435,28.033 22.266,28.179 22.235,28.375 L21.056,35.852 C21.033,35.999 21.147,36.132 21.295,36.132 L22.792,36.132 C22.931,36.132 23.049,36.03 23.071,35.892 L23.405,33.773 C23.437,33.577 23.606,33.431 23.805,33.431 L24.727,33.431 C26.649,33.431 27.756,32.502 28.046,30.66 C28.177,29.854 28.051,29.221 27.674,28.777 C27.26,28.292 26.525,28.033 25.549,28.033 L25.549,28.033 Z M25.887,30.765 C25.728,31.811 24.929,31.811 24.155,31.811 L23.715,31.811 L24.026,29.858 C24.044,29.739 24.145,29.652 24.265,29.652 L24.466,29.652 C24.992,29.652 25.489,29.652 25.747,29.952 C25.898,30.131 25.944,30.396 25.887,30.765 L25.887,30.765 Z" id="Shape" fill="#179BD7"></path>
        <path d="M34.264,30.73 L32.868,30.73 C32.748,30.73 32.646,30.817 32.629,30.935 L32.567,31.326 L32.468,31.184 C32.166,30.746 31.492,30.598 30.821,30.598 C29.278,30.598 27.961,31.767 27.703,33.406 C27.571,34.224 27.76,35.006 28.224,35.551 C28.651,36.052 29.259,36.262 29.983,36.262 C31.226,36.262 31.916,35.462 31.916,35.462 L31.853,35.85 C31.831,35.999 31.945,36.13 32.093,36.13 L33.352,36.13 C33.55,36.13 33.72,35.986 33.751,35.789 L34.506,31.011 C34.527,30.863 34.413,30.73 34.264,30.73 L34.264,30.73 Z M32.317,33.447 C32.183,34.245 31.55,34.78 30.743,34.78 C30.338,34.78 30.014,34.65 29.805,34.404 C29.6,34.159 29.522,33.811 29.586,33.424 C29.712,32.632 30.356,32.08 31.151,32.08 C31.546,32.08 31.869,32.211 32.081,32.46 C32.295,32.711 32.379,33.062 32.317,33.447 L32.317,33.447 Z" id="Shape" fill="#179BD7"></path>
        <path d="M35.909,28.238 L34.713,35.851 C34.691,35.998 34.804,36.131 34.952,36.131 L36.155,36.131 C36.355,36.131 36.525,35.986 36.555,35.788 L37.735,28.313 C37.758,28.166 37.644,28.032 37.496,28.032 L36.149,28.032 C36.03,28.033 35.928,28.121 35.909,28.238 L35.909,28.238 Z" id="Shape" fill="#179BD7"></path>
        <path d="M16.583,23.328 L16.993,20.724 L16.08,20.703 L11.72,20.703 L14.75,1.495 C14.759,1.436 14.789,1.383 14.834,1.344 C14.879,1.305 14.937,1.284 14.996,1.284 L22.344,1.284 C24.785,1.284 26.469,1.792 27.348,2.794 C27.76,3.264 28.024,3.755 28.149,4.297 C28.282,4.864 28.284,5.542 28.157,6.368 L28.147,6.428 L28.147,6.959 L28.557,7.192 C28.905,7.376 29.18,7.587 29.395,7.828 C29.745,8.23 29.973,8.742 30.069,9.347 C30.171,9.97 30.135,10.712 29.973,11.551 C29.787,12.516 29.481,13.357 29.071,14.045 C28.694,14.679 28.212,15.204 27.639,15.612 C27.094,15.999 26.448,16.293 25.715,16.481 C25.004,16.665 24.195,16.759 23.307,16.759 L22.735,16.759 C22.327,16.759 21.929,16.906 21.617,17.17 C21.305,17.44 21.098,17.809 21.035,18.212 L20.992,18.446 L20.268,23.033 L20.235,23.201 C20.226,23.256 20.213,23.281 20.19,23.3 C20.17,23.316 20.143,23.328 20.114,23.328 L16.583,23.328 L16.583,23.328 Z" id="Shape" fill="#253B80"></path>
        <path d="M28.948,6.49 L28.948,6.49 L28.948,6.49 C28.925,6.63 28.901,6.773 28.874,6.922 C27.905,11.898 24.587,13.617 20.355,13.617 L18.196,13.617 C17.678,13.617 17.242,13.993 17.162,14.505 L17.162,14.505 L17.162,14.505 L16.058,21.507 L15.746,23.49 C15.694,23.825 15.952,24.129 16.291,24.129 L20.115,24.129 C20.57,24.129 20.952,23.8 21.025,23.354 L21.063,23.16 L21.782,18.591 L21.829,18.34 C21.899,17.892 22.283,17.564 22.736,17.564 L23.308,17.564 C27.013,17.564 29.913,16.059 30.763,11.705 C31.117,9.886 30.933,8.368 29.995,7.299 C29.712,6.976 29.36,6.708 28.948,6.49 L28.948,6.49 Z" id="Shape" fill="#179BD7"></path>
        <path d="M27.935,6.086 C27.787,6.044 27.634,6.003 27.478,5.968 C27.322,5.934 27.16,5.903 26.994,5.876 C26.412,5.783 25.775,5.738 25.092,5.738 L19.333,5.738 C19.19,5.738 19.056,5.77 18.936,5.828 C18.67,5.956 18.473,6.207 18.426,6.516 L17.2,14.279 L17.165,14.505 C17.245,13.994 17.682,13.617 18.199,13.617 L20.358,13.617 C24.589,13.617 27.908,11.897 28.877,6.922 C28.906,6.774 28.928,6.63 28.951,6.49 C28.707,6.36 28.441,6.248 28.154,6.154 C28.081,6.131 28.009,6.108 27.935,6.086 L27.935,6.086 Z" id="Shape" fill="#222D65"></path>
        <path d="M18.424,6.516 C18.471,6.208 18.669,5.956 18.934,5.829 C19.056,5.77 19.188,5.739 19.331,5.739 L25.09,5.739 C25.774,5.739 26.41,5.784 26.992,5.878 C27.158,5.905 27.32,5.936 27.476,5.97 C27.632,6.005 27.785,6.045 27.933,6.088 C28.007,6.109 28.079,6.133 28.15,6.155 C28.437,6.25 28.703,6.363 28.947,6.491 C29.238,4.652 28.945,3.4 27.951,2.266 C26.857,1.018 24.877,0.483 22.346,0.483 L14.997,0.483 C14.48,0.483 14.039,0.859 13.958,1.371 L10.896,20.777 C10.836,21.161 11.132,21.507 11.519,21.507 L16.057,21.507 L17.197,14.279 L18.424,6.516 L18.424,6.516 Z" id="Shape" fill="#253B80"></path>
    </g>
</svg>